<svg preserveAspectRatio="none" width="100%" height="100%" overflow="visible" style="display: block;" viewBox="0 0 26.6158 26.6158" fill="none" xmlns="http://www.w3.org/2000/svg">
<path id="vector" fill-rule="evenodd" clip-rule="evenodd" d="M13.3907 0.678721C13.6487 1.13656 13.6137 1.70327 13.3013 2.1259C12.1623 3.66678 11.6143 5.56527 11.7568 7.47609C11.8993 9.3869 12.7229 11.1831 14.0778 12.538C15.4327 13.8929 17.2289 14.7165 19.1397 14.859C21.0505 15.0015 22.949 14.4534 24.4899 13.3145C24.9125 13.0021 25.4792 12.9671 25.9371 13.2251C26.3949 13.4832 26.6585 13.9861 26.6101 14.5094C26.3771 17.0312 25.4306 19.4344 23.8816 21.438C22.3325 23.4415 20.2449 24.9624 17.863 25.8228C15.4811 26.6831 12.9034 26.8473 10.4316 26.2962C7.95975 25.745 5.69602 24.5013 3.90525 22.7105C2.11448 20.9198 0.870748 18.656 0.31959 16.1842C-0.231569 13.7124 -0.0673607 11.1347 0.793001 8.75279C1.65336 6.37088 3.17429 4.28326 5.17782 2.7342C7.18135 1.18515 9.58461 0.238725 12.1064 0.00567962C12.6297 -0.0426817 13.1326 0.220878 13.3907 0.678721Z" fill="var(--fill-0, #7D5EC0)"/>
</svg>
