<svg preserveAspectRatio="none" width="100%" height="100%" overflow="visible" style="display: block;" viewBox="0 0 32.4 7.2" fill="none" xmlns="http://www.w3.org/2000/svg">
<path id="vector" fill-rule="evenodd" clip-rule="evenodd" d="M0 3.6C0 1.61177 1.61177 0 3.6 0C5.58823 0 7.2 1.61177 7.2 3.6C7.2 5.58823 5.58823 7.2 3.6 7.2C1.61177 7.2 0 5.58823 0 3.6ZM12.6 3.6C12.6 1.61177 14.2118 0 16.2 0C18.1882 0 19.8 1.61177 19.8 3.6C19.8 5.58823 18.1882 7.2 16.2 7.2C14.2118 7.2 12.6 5.58823 12.6 3.6ZM25.2 3.6C25.2 1.61177 26.8118 0 28.8 0C30.7882 0 32.4 1.61177 32.4 3.6C32.4 5.58823 30.7882 7.2 28.8 7.2C26.8118 7.2 25.2 5.58823 25.2 3.6Z" fill="var(--fill-0, white)"/>
</svg>
