<svg preserveAspectRatio="none" width="100%" height="100%" overflow="visible" style="display: block;" viewBox="0 0 12.8333 12.8333" fill="none" xmlns="http://www.w3.org/2000/svg">
<g id="Refresh Icon">
<g id="vector">
<path fill-rule="evenodd" clip-rule="evenodd" d="M6.41465 1.06945L6.41667 1.06944C7.83484 1.06944 9.19492 1.63281 10.1977 2.63561C11.2005 3.63841 11.7639 4.9985 11.7639 6.41667C11.7639 6.71199 11.5245 6.95139 11.2292 6.95139C10.9338 6.95139 10.6944 6.71199 10.6944 6.41667C10.6944 5.28213 10.2438 4.19406 9.44151 3.39182C8.63951 2.58982 7.55184 2.13915 6.41767 2.13889C5.2121 2.14368 4.05495 2.61364 3.18746 3.4507L1.98227 4.65588C1.77345 4.86471 1.43488 4.86471 1.22606 4.65588C1.01724 4.44706 1.01724 4.10849 1.22606 3.89967L2.43453 2.6912C2.43667 2.68907 2.43882 2.68695 2.44098 2.68486C3.50749 1.65384 4.93128 1.07503 6.41465 1.06945Z" fill="var(--fill-0, #F6F6F3)"/>
<path fill-rule="evenodd" clip-rule="evenodd" d="M1.60417 1.06944C1.89949 1.06944 2.13889 1.30885 2.13889 1.60417V3.74306H4.27778C4.5731 3.74306 4.8125 3.98246 4.8125 4.27778C4.8125 4.5731 4.5731 4.8125 4.27778 4.8125H1.60417C1.30885 4.8125 1.06944 4.5731 1.06944 4.27778V1.60417C1.06944 1.30885 1.30885 1.06944 1.60417 1.06944Z" fill="var(--fill-0, #F6F6F3)"/>
<path fill-rule="evenodd" clip-rule="evenodd" d="M1.60417 5.88194C1.89949 5.88194 2.13889 6.12135 2.13889 6.41667C2.13889 7.5512 2.58958 8.63927 3.39182 9.44151C4.19383 10.2435 5.28151 10.6942 6.4157 10.6944C7.62125 10.6896 8.77839 10.2197 9.64588 9.38263L10.8511 8.17745C11.0599 7.96863 11.3984 7.96863 11.6073 8.17745C11.8161 8.38627 11.8161 8.72484 11.6073 8.93366L10.3988 10.1421C10.3967 10.1443 10.3945 10.1464 10.3923 10.1485C9.32584 11.1795 7.90205 11.7583 6.41868 11.7639L6.41667 11.7639C4.9985 11.7639 3.63841 11.2005 2.63561 10.1977C1.63281 9.19492 1.06944 7.83484 1.06944 6.41667C1.06944 6.12135 1.30885 5.88194 1.60417 5.88194Z" fill="var(--fill-0, #F6F6F3)"/>
<path fill-rule="evenodd" clip-rule="evenodd" d="M8.02083 8.55556C8.02083 8.26024 8.26024 8.02083 8.55556 8.02083H11.2292C11.5245 8.02083 11.7639 8.26024 11.7639 8.55556V11.2292C11.7639 11.5245 11.5245 11.7639 11.2292 11.7639C10.9338 11.7639 10.6944 11.5245 10.6944 11.2292V9.09028H8.55556C8.26024 9.09028 8.02083 8.85087 8.02083 8.55556Z" fill="var(--fill-0, #F6F6F3)"/>
</g>
</g>
</svg>
