<svg preserveAspectRatio="none" width="100%" height="100%" overflow="visible" style="display: block;" viewBox="0 0 11.4471 8.82292" fill="none" xmlns="http://www.w3.org/2000/svg">
<path id="SF Symbol / speaker.wave.2.fill" d="M5.39616 8.82292C5.76542 8.82292 6.03621 8.5472 6.03621 8.18286V0.664673C6.03621 0.29541 5.76542 0 5.38631 0C5.13521 0 4.95797 0.108317 4.68717 0.364339L2.62915 2.28943C2.59961 2.31897 2.56022 2.33374 2.51591 2.33374H1.12256C0.39388 2.33374 0 2.73747 0 3.50061V5.33215C0 6.0953 0.39388 6.49902 1.12256 6.49902H2.51591C2.56022 6.49902 2.59469 6.51379 2.62915 6.54333L4.68717 8.48319C4.93335 8.71952 5.14014 8.82292 5.39616 8.82292ZM9.77315 7.92192C9.99963 8.05977 10.2754 8.01054 10.4329 7.77913C11.073 6.87321 11.4471 5.6571 11.4471 4.40653C11.4471 3.15597 11.0779 1.93494 10.4329 1.03394C10.2754 0.802531 9.99963 0.748372 9.77315 0.891154C9.53682 1.03886 9.50236 1.33427 9.67961 1.59521C10.2015 2.36328 10.5018 3.36275 10.5018 4.40653C10.5018 5.44539 10.1966 6.44486 9.67961 7.21785C9.50728 7.4788 9.53682 7.76929 9.77315 7.92192ZM7.7939 6.60242C8.00562 6.74027 8.28133 6.69104 8.43396 6.47441C8.83276 5.94267 9.06909 5.18937 9.06909 4.40653C9.06909 3.6237 8.83276 2.87533 8.43396 2.33866C8.28133 2.12203 8.00562 2.07279 7.7939 2.21558C7.55265 2.37313 7.50342 2.66361 7.70036 2.94918C7.97115 3.33813 8.12378 3.86003 8.12378 4.40653C8.12378 4.95304 7.96623 5.47001 7.70036 5.86389C7.50834 6.14945 7.55265 6.43994 7.7939 6.60242Z" fill="var(--fill-0, #EBEBF5)" fill-opacity="0.6"/>
</svg>
